<svg width="80" height="76" viewBox="0 0 80 76" fill="none" xmlns="http://www.w3.org/2000/svg">
<ellipse cx="40" cy="38" rx="40" ry="38" fill="#5A66D1"/>
<path d="M50.625 21H27.875C26.5821 21 25.3421 21.5136 24.4279 22.4279C23.5136 23.3421 23 24.5821 23 25.875V42.125C23 43.4179 23.5136 44.6579 24.4279 45.5721C25.3421 46.4864 26.5821 47 27.875 47H46.7087L52.7213 53.0288C52.8731 53.1794 53.0532 53.2985 53.2512 53.3794C53.4491 53.4603 53.6611 53.5012 53.875 53.5C54.0882 53.5055 54.2996 53.461 54.4925 53.37C54.7893 53.2481 55.0433 53.0411 55.2226 52.775C55.4019 52.509 55.4984 52.1958 55.5 51.875V25.875C55.5 24.5821 54.9864 23.3421 54.0721 22.4279C53.1579 21.5136 51.9179 21 50.625 21ZM52.25 47.9588L48.5287 44.2213C48.3769 44.0706 48.1968 43.9515 47.9988 43.8706C47.8009 43.7898 47.5889 43.7488 47.375 43.75H27.875C27.444 43.75 27.0307 43.5788 26.726 43.274C26.4212 42.9693 26.25 42.556 26.25 42.125V25.875C26.25 25.444 26.4212 25.0307 26.726 24.726C27.0307 24.4212 27.444 24.25 27.875 24.25H50.625C51.056 24.25 51.4693 24.4212 51.774 24.726C52.0788 25.0307 52.25 25.444 52.25 25.875V47.9588Z" fill="white"/>
</svg>
